<?xml version="1.0" encoding="UTF-8" standalone="no"?>
<!-- Created with Inkscape (http://www.inkscape.org/) -->

<svg
   xmlns:dc="http://purl.org/dc/elements/1.1/"
   xmlns:cc="http://creativecommons.org/ns#"
   xmlns:rdf="http://www.w3.org/1999/02/22-rdf-syntax-ns#"
   xmlns:svg="http://www.w3.org/2000/svg"
   xmlns="http://www.w3.org/2000/svg"
   xmlns:sodipodi="http://sodipodi.sourceforge.net/DTD/sodipodi-0.dtd"
   xmlns:inkscape="http://www.inkscape.org/namespaces/inkscape"
   width="107.8527mm"
   height="11.475857mm"
   viewBox="0 0 107.8527 11.475857"
   version="1.1"
   id="svg8"
   inkscape:version="0.92.4 (5da689c313, 2019-01-14)"
   sodipodi:docname="temp_logo.svg"
   inkscape:export-filename="C:\Users\May Lawver\Documents\Projects\inheritance\assets\temp_logo.png"
   inkscape:export-xdpi="192.56078"
   inkscape:export-ydpi="192.56078">
  <defs
     id="defs2" />
  <sodipodi:namedview
     id="base"
     pagecolor="#ffffff"
     bordercolor="#666666"
     borderopacity="1.0"
     inkscape:pageopacity="0.0"
     inkscape:pageshadow="2"
     inkscape:zoom="3.959798"
     inkscape:cx="176.28138"
     inkscape:cy="21.426825"
     inkscape:document-units="mm"
     inkscape:current-layer="layer1"
     showgrid="false"
     fit-margin-top="0"
     fit-margin-left="0"
     fit-margin-right="0"
     fit-margin-bottom="0"
     inkscape:window-width="3840"
     inkscape:window-height="2004"
     inkscape:window-x="-16"
     inkscape:window-y="-16"
     inkscape:window-maximized="1" />
  <metadata
     id="metadata5">
    <rdf:RDF>
      <cc:Work
         rdf:about="">
        <dc:format>image/svg+xml</dc:format>
        <dc:type
           rdf:resource="http://purl.org/dc/dcmitype/StillImage" />
        <dc:title />
      </cc:Work>
    </rdf:RDF>
  </metadata>
  <g
     inkscape:label="Layer 1"
     inkscape:groupmode="layer"
     id="layer1"
     transform="translate(-51.338235,-143.02666)">
    <path
       inkscape:connector-curvature="0"
       id="path1033"
       d="m 56.270602,144.55049 c -2.138896,0.50134 1.363251,7.8177 -1.608666,6.99558 0.0039,-2.6061 1.548895,-8.10679 -2.44475,-7.01675 0.09779,-0.83285 7.793011,-0.96838 4.053416,0.0212 z m 5.26802,7.10141 c -2.139644,1.38743 0.286205,-6.66439 -2.550584,-2.84691 0.393344,1.84594 -1.004759,4.67672 -0.762,1.143 0.607961,-1.5914 -1.502094,-6.0814 0.582084,-5.79967 0.324373,1.65946 -0.934367,5.34961 1.640416,3.06917 1.566394,0.34915 0.631824,3.25589 1.090084,4.43441 z m 3.932038,-0.46566 c -3.057043,3.149 -4.889345,-3.55197 -2.645833,-5.05884 3.454824,-1.22733 3.310114,3.99904 0.182562,3.26232 -0.630661,2.6911 1.150456,1.53542 2.463271,1.79652 z m -1.037167,-3.79942 c -1.870663,-3.00577 -1.858029,3.62461 0.02117,0.51858 l -0.01058,-0.24341 z m 11.072482,-0.47625 c -0.555181,1.92394 -3.270049,2.34808 -2.368021,4.99798 -2.235479,-0.89495 -0.03034,-5.51884 -1.023937,-7.69144 1.860731,-0.89357 4.006262,0.3608 3.391958,2.69346 z m -0.931333,-0.56092 c 0.595397,-2.22524 -2.442208,-2.44397 -1.312333,0.0423 -0.950723,2.98995 1.619583,2.28475 1.312333,-0.0423 z m 5.874247,1.9685 c -0.489952,1.19515 -2.675767,-2.10806 -2.995745,0.87528 0.683632,1.76293 -1.053977,4.22355 -0.912151,1.08 0.03554,-1.3564 -0.831952,-5.99716 0.870479,-2.77019 0.798757,0.30884 3.040535,-2.20817 3.037417,0.81491 z m 4.912154,2.20134 c -2.920706,4.79628 -6.411446,-3.17203 -1.862667,-3.76767 1.870688,0.11607 1.6758,2.45471 1.862667,3.76767 z m -1.026583,-0.21167 c 0.548758,-2.55147 -1.982444,-3.82873 -1.820334,-0.59002 -0.775689,1.5427 1.812723,2.19205 1.820334,0.59002 z m 4.323787,-2.74108 c -2.786414,0.17506 0.672681,4.62183 -1.066271,4.5085 -1.330061,-1.46476 -0.412007,-3.88867 -1.674813,-4.59581 2.017192,0.42247 -0.497487,-4.8291 1.658276,-2.667 0.113168,1.50562 -0.449925,2.41202 1.082808,2.75431 z m 4.743649,2.95275 c -2.920706,4.79628 -6.411445,-3.17203 -1.862666,-3.76767 1.870688,0.11607 1.6758,2.45471 1.862666,3.76767 z m -1.026583,-0.21167 c 0.548758,-2.55147 -1.982444,-3.82873 -1.820333,-0.59002 -0.77569,1.5427 1.812722,2.19205 1.820333,0.59002 z m 4.323785,-2.74108 c -2.786413,0.17506 0.672682,4.62183 -1.06627,4.5085 -1.330061,-1.46476 -0.412007,-3.88867 -1.674813,-4.59581 2.017192,0.42247 -0.497487,-4.8291 1.658276,-2.667 0.113168,1.50562 -0.449925,2.41202 1.082807,2.75431 z m 4.807152,0.21166 c 0.30626,2.85293 -1.38093,6.43491 -4.627014,6.42409 -1.579001,-1.38043 3.046187,-0.44735 3.304094,-2.80459 -2.108071,0.17723 -3.356239,-5.12748 -1.523999,-3.53483 -0.765542,2.5862 3.086399,3.93182 1.862669,0.37042 -0.538847,-0.83639 0.77218,-1.07587 0.98425,-0.45509 z m 3.31341,0.9525 c -0.952,2.03171 -2.39027,3.12576 -1.905,5.47159 -1.13714,-1.70663 -0.56008,-4.77767 -0.99483,-7.01675 1.20123,-0.62814 3.38371,-0.35895 2.89983,1.54516 z m -0.80433,0.34925 c 0.23035,-2.92072 -2.22955,-1.70244 -1.16417,0.60325 -0.56404,2.44864 1.13414,0.48265 1.16417,-0.60325 z m 4.94622,2.10609 c -3.05705,3.149 -4.88935,-3.55197 -2.64584,-5.05884 3.45483,-1.22733 3.31012,3.99904 0.18257,3.26232 -0.63067,2.6911 1.15045,1.53542 2.46327,1.79652 z m -1.03717,-3.79942 c -1.87066,-3.00577 -1.85803,3.62461 0.0212,0.51858 l -0.0106,-0.24341 z m 8.92407,4.05342 c -2.5313,1.43998 -0.32234,-4.53543 -1.10067,-6.13834 0.0125,-3.15717 1.21796,0.2987 0.80433,1.76742 0.11469,1.45486 0.13816,2.91764 0.29634,4.37092 z m 5.16234,-0.381 c -1.93661,3.34999 -0.0869,-6.97513 -3.15383,-2.61409 0.9593,2.33574 -1.08966,5.20596 -0.889,1.58971 0.18792,-1.48868 -1.39871,-5.49453 0.86783,-2.82796 1.08215,-0.79239 3.63457,-0.36411 3.02784,2.26209 0.0291,0.53181 0.0962,1.06032 0.14716,1.59025 z m 4.26807,0.59266 c -2.13965,1.38743 0.2862,-6.66439 -2.55058,-2.84691 0.39334,1.84594 -1.00476,4.67672 -0.762,1.143 0.60796,-1.5914 -1.5021,-6.0814 0.58208,-5.79967 0.32437,1.65946 -0.93437,5.34961 1.64042,3.06917 1.56639,0.34915 0.63182,3.25589 1.09008,4.43441 z m 3.93203,-0.46566 c -3.05704,3.149 -4.88934,-3.55197 -2.64583,-5.05884 3.45482,-1.22733 3.31011,3.99904 0.18256,3.26232 -0.63066,2.6911 1.15046,1.53542 2.46327,1.79652 z m -1.03716,-3.79942 c -1.87067,-3.00577 -1.85803,3.62461 0.0212,0.51858 l -0.0106,-0.24341 z m 5.84547,0.93133 c -0.48995,1.19515 -2.67576,-2.10806 -2.99574,0.87528 0.68363,1.76293 -1.05398,4.22355 -0.91215,1.08 0.0355,-1.3564 -0.83196,-5.99716 0.87048,-2.77019 0.79875,0.30884 3.04053,-2.20817 3.03741,0.81491 z m 1.61015,-2.04258 c -0.68893,2.6566 -1.56933,-1.94524 0,0 z m 0.53975,5.24933 c -1.49003,2.2002 -2.05626,-5.40803 -0.37041,-3.18558 -0.0249,1.0691 -0.38958,2.28696 0.37041,3.18558 z m 3.45496,-3.95816 c -2.78641,0.17506 0.67269,4.62183 -1.06627,4.5085 -1.33006,-1.46476 -0.412,-3.88867 -1.67481,-4.59581 2.01719,0.42247 -0.49749,-4.8291 1.65828,-2.667 0.11316,1.50562 -0.44993,2.41202 1.0828,2.75431 z m 5.06116,3.69358 c -0.79515,1.66767 -6.84554,0.36347 -3.81,-2.413 2.93336,-0.66043 1.49296,-1.04086 -0.15875,-1.95792 2.57218,-1.09374 3.92542,1.74557 3.4925,4.064 z m -1.48167,-0.381 c 1.05951,-3.38684 -3.58027,-1.78765 -1.481,0.45178 0.52019,0.18059 1.2649,0.15784 1.481,-0.45178 z m 6.58068,0.17992 c -1.93661,3.34999 -0.0868,-6.97513 -3.15383,-2.61409 0.95929,2.33574 -1.08967,5.20596 -0.889,1.58971 0.18792,-1.48868 -1.39871,-5.49453 0.86783,-2.82796 1.08215,-0.79239 3.63457,-0.36411 3.02783,2.26209 0.0291,0.53181 0.0962,1.06032 0.14717,1.59025 z m 3.9294,-0.0423 c -1.99476,2.7429 -4.5942,-0.57422 -3.39725,-3.09033 -0.39232,-2.58788 5.3407,-2.23405 1.10066,-0.889 -0.57104,1.97512 -0.66962,5.30261 2.159,3.71475 z m 3.87796,0.16933 c -3.05704,3.149 -4.88934,-3.55197 -2.64583,-5.05883 3.45482,-1.22734 3.31011,3.99903 0.18256,3.26231 -0.63066,2.6911 1.15046,1.53543 2.46327,1.79652 z m -1.03716,-3.79941 c -1.87067,-3.00578 -1.85803,3.6246 0.0212,0.51858 l -0.0106,-0.24342 z"
       style="font-style:normal;font-weight:normal;font-size:10.58333302px;line-height:1.25;font-family:sans-serif;letter-spacing:0px;word-spacing:0px;fill:#000000;fill-opacity:1;stroke:#000000;stroke-width:0.60000002;stroke-miterlimit:4;stroke-dasharray:none;stroke-opacity:1" />
    <path
       inkscape:connector-curvature="0"
       id="path1029"
       d="m 55.741435,144.02132 c -2.138896,0.50134 1.363251,7.8177 -1.608666,6.99558 0.0039,-2.6061 1.548895,-8.10679 -2.44475,-7.01675 0.09779,-0.83285 7.793011,-0.96838 4.053416,0.0212 z m 5.26802,7.10141 c -2.139644,1.38743 0.286205,-6.66439 -2.550584,-2.84691 0.393344,1.84594 -1.004759,4.67672 -0.762,1.143 0.607961,-1.5914 -1.502094,-6.0814 0.582084,-5.79967 0.324373,1.65946 -0.934367,5.34961 1.640416,3.06917 1.566394,0.34915 0.631824,3.25589 1.090084,4.43441 z m 3.932038,-0.46566 c -3.057043,3.149 -4.889345,-3.55197 -2.645833,-5.05884 3.454824,-1.22733 3.310114,3.99904 0.182562,3.26232 -0.630661,2.6911 1.150456,1.53542 2.463271,1.79652 z m -1.037167,-3.79942 c -1.870663,-3.00577 -1.858029,3.62461 0.02117,0.51858 l -0.01058,-0.24341 z m 11.072482,-0.47625 c -0.555181,1.92394 -3.270049,2.34808 -2.368021,4.99798 -2.235479,-0.89495 -0.03034,-5.51884 -1.023937,-7.69144 1.860731,-0.89357 4.006262,0.3608 3.391958,2.69346 z m -0.931333,-0.56092 c 0.595397,-2.22524 -2.442208,-2.44397 -1.312333,0.0423 -0.950723,2.98995 1.619583,2.28475 1.312333,-0.0423 z m 5.874247,1.9685 c -0.489952,1.19515 -2.675767,-2.10806 -2.995745,0.87528 0.683632,1.76293 -1.053977,4.22355 -0.912151,1.08 0.03554,-1.3564 -0.831952,-5.99716 0.870479,-2.77019 0.798757,0.30884 3.040535,-2.20817 3.037417,0.81491 z m 4.912154,2.20134 c -2.920706,4.79628 -6.411446,-3.17203 -1.862667,-3.76767 1.870688,0.11607 1.6758,2.45471 1.862667,3.76767 z m -1.026583,-0.21167 c 0.548758,-2.55147 -1.982444,-3.82873 -1.820334,-0.59002 -0.775689,1.5427 1.812723,2.19205 1.820334,0.59002 z m 4.323787,-2.74108 c -2.786414,0.17506 0.672681,4.62183 -1.066271,4.5085 -1.330061,-1.46476 -0.412007,-3.88867 -1.674813,-4.59581 2.017192,0.42247 -0.497487,-4.8291 1.658276,-2.667 0.113168,1.50562 -0.449925,2.41202 1.082808,2.75431 z m 4.743649,2.95275 c -2.920706,4.79628 -6.411445,-3.17203 -1.862666,-3.76767 1.870688,0.11607 1.6758,2.45471 1.862666,3.76767 z m -1.026583,-0.21167 c 0.548758,-2.55147 -1.982444,-3.82873 -1.820333,-0.59002 -0.77569,1.5427 1.812722,2.19205 1.820333,0.59002 z m 4.323785,-2.74108 c -2.786413,0.17506 0.672682,4.62183 -1.06627,4.5085 -1.330061,-1.46476 -0.412007,-3.88867 -1.674813,-4.59581 2.017192,0.42247 -0.497487,-4.8291 1.658276,-2.667 0.113168,1.50562 -0.449925,2.41202 1.082807,2.75431 z m 4.807149,0.21166 c 0.30626,2.85293 -1.380926,6.43491 -4.627011,6.42409 -1.579001,-1.38043 3.046183,-0.44735 3.304095,-2.80459 -2.108072,0.17723 -3.35624,-5.12748 -1.524,-3.53483 -0.765542,2.5862 3.086396,3.93182 1.862667,0.37042 -0.538847,-0.83639 0.772179,-1.07587 0.984249,-0.45509 z m 3.31341,0.9525 c -0.952,2.03171 -2.39027,3.12576 -1.905,5.47159 -1.13714,-1.70663 -0.56008,-4.77767 -0.99483,-7.01675 1.20123,-0.62814 3.38371,-0.35895 2.89983,1.54516 z m -0.80433,0.34925 c 0.23035,-2.92072 -2.22955,-1.70244 -1.16417,0.60325 -0.56404,2.44864 1.13414,0.48265 1.16417,-0.60325 z m 4.94622,2.10609 c -3.05705,3.149 -4.88935,-3.55197 -2.64584,-5.05884 3.45483,-1.22733 3.31012,3.99904 0.18257,3.26232 -0.63067,2.6911 1.15045,1.53542 2.46327,1.79652 z m -1.03717,-3.79942 c -1.87066,-3.00577 -1.85803,3.62461 0.0212,0.51858 l -0.0106,-0.24341 z m 8.92407,4.05342 c -2.5313,1.43998 -0.32234,-4.53543 -1.10067,-6.13834 0.0125,-3.15717 1.21796,0.2987 0.80433,1.76742 0.11469,1.45486 0.13816,2.91764 0.29634,4.37092 z m 5.16234,-0.381 c -1.93661,3.34999 -0.0869,-6.97513 -3.15383,-2.61409 0.9593,2.33574 -1.08966,5.20596 -0.889,1.58971 0.18792,-1.48868 -1.39871,-5.49453 0.86783,-2.82796 1.08215,-0.79239 3.63457,-0.36411 3.02784,2.26209 0.0291,0.53181 0.0962,1.06032 0.14716,1.59025 z m 4.26807,0.59266 c -2.13965,1.38743 0.2862,-6.66439 -2.55058,-2.84691 0.39334,1.84594 -1.00476,4.67672 -0.762,1.143 0.60796,-1.5914 -1.5021,-6.0814 0.58208,-5.79967 0.32437,1.65946 -0.93437,5.34961 1.64042,3.06917 1.56639,0.34915 0.63182,3.25589 1.09008,4.43441 z m 3.93203,-0.46566 c -3.05704,3.149 -4.88934,-3.55197 -2.64583,-5.05884 3.45482,-1.22733 3.31011,3.99904 0.18256,3.26232 -0.63066,2.6911 1.15046,1.53542 2.46327,1.79652 z m -1.03716,-3.79942 c -1.87067,-3.00577 -1.85803,3.62461 0.0212,0.51858 l -0.0106,-0.24341 z m 5.84547,0.93133 c -0.48995,1.19515 -2.67576,-2.10806 -2.99574,0.87528 0.68363,1.76293 -1.05398,4.22355 -0.91215,1.08 0.0355,-1.3564 -0.83196,-5.99716 0.87048,-2.77019 0.79875,0.30884 3.04053,-2.20817 3.03741,0.81491 z m 1.61015,-2.04258 c -0.68893,2.6566 -1.56933,-1.94524 0,0 z m 0.53975,5.24933 c -1.49003,2.2002 -2.05626,-5.40803 -0.37041,-3.18558 -0.0249,1.0691 -0.38958,2.28696 0.37041,3.18558 z m 3.45496,-3.95816 c -2.78641,0.17506 0.67269,4.62183 -1.06627,4.5085 -1.33006,-1.46476 -0.412,-3.88867 -1.67481,-4.59581 2.01719,0.42247 -0.49749,-4.8291 1.65828,-2.667 0.11316,1.50562 -0.44993,2.41202 1.0828,2.75431 z m 5.06116,3.69358 c -0.79515,1.66767 -6.84554,0.36347 -3.81,-2.413 2.93336,-0.66043 1.49296,-1.04086 -0.15875,-1.95792 2.57218,-1.09374 3.92542,1.74557 3.4925,4.064 z m -1.48167,-0.381 c 1.05951,-3.38684 -3.58027,-1.78765 -1.481,0.45178 0.52019,0.18059 1.2649,0.15784 1.481,-0.45178 z m 6.58068,0.17992 c -1.93661,3.34999 -0.0868,-6.97513 -3.15383,-2.61409 0.95929,2.33574 -1.08967,5.20596 -0.889,1.58971 0.18792,-1.48868 -1.39871,-5.49453 0.86783,-2.82796 1.08215,-0.79239 3.63457,-0.36411 3.02783,2.26209 0.0291,0.53181 0.0962,1.06032 0.14717,1.59025 z m 3.9294,-0.0423 c -1.99476,2.7429 -4.5942,-0.57422 -3.39725,-3.09033 -0.39232,-2.58788 5.3407,-2.23405 1.10066,-0.889 -0.57104,1.97512 -0.66962,5.30261 2.159,3.71475 z m 3.87796,0.16933 c -3.05704,3.149 -4.88934,-3.55197 -2.64583,-5.05883 3.45482,-1.22734 3.31011,3.99903 0.18256,3.26231 -0.63066,2.6911 1.15046,1.53543 2.46327,1.79652 z m -1.03716,-3.79941 c -1.87067,-3.00578 -1.85803,3.6246 0.0212,0.51858 l -0.0106,-0.24342 z"
       style="font-style:normal;font-weight:normal;font-size:10.58333302px;line-height:1.25;font-family:sans-serif;letter-spacing:0px;word-spacing:0px;fill:#0000ff;fill-opacity:1;stroke:#0000ff;stroke-width:0.60000002;stroke-miterlimit:4;stroke-dasharray:none;stroke-opacity:1" />
  </g>
</svg>
